M48
; DRILL file {KiCad (6.0.4)} date Mon Oct  2 11:20:47 2023
; FORMAT={-:-/ absolute / inch / decimal}
; #@! TF.CreationDate,2023-10-02T11:20:47-05:00
; #@! TF.GenerationSoftware,Kicad,Pcbnew,(6.0.4)
; #@! TF.FileFunction,MixedPlating,1,2
FMAT,2
INCH
; #@! TA.AperFunction,Plated,PTH,ViaDrill
T1C0.0157
; #@! TA.AperFunction,Plated,PTH,ComponentDrill
T2C0.0157
; #@! TA.AperFunction,Plated,PTH,ComponentDrill
T3C0.0320
; #@! TA.AperFunction,Plated,PTH,ComponentDrill
T4C0.0394
; #@! TA.AperFunction,Plated,PTH,ComponentDrill
T5C0.0430
; #@! TA.AperFunction,Plated,PTH,ComponentDrill
T6C0.0512
; #@! TA.AperFunction,Plated,PTH,ComponentDrill
T7C0.0984
; #@! TA.AperFunction,NonPlated,NPTH,ComponentDrill
T8C0.0039
; #@! TA.AperFunction,NonPlated,NPTH,ComponentDrill
T9C0.0354
; #@! TA.AperFunction,NonPlated,NPTH,ComponentDrill
T10C0.0669
; #@! TA.AperFunction,NonPlated,NPTH,ComponentDrill
T11C0.0748
; #@! TA.AperFunction,NonPlated,NPTH,ComponentDrill
T12C0.1181
; #@! TA.AperFunction,NonPlated,NPTH,ComponentDrill
T13C0.1575
%
G90
G05
T1
X3.1969Y-4.2012
X3.3929Y-4.1433
X3.8717Y-1.062
X3.9092Y-1.0443
X3.9398Y-1.0134
X3.9923Y-1.0825
X4.3083Y-1.1563
X4.5618Y-4.252
X4.9362Y-1.235
X5.0189Y-1.0801
X5.0587Y-1.0681
X5.1023Y-1.0532
X5.1508Y-1.0614
X5.326Y-1.176
X5.4335Y-1.2366
X5.439Y-2.1
X5.4645Y-1.927
X5.4675Y-2.1457
X5.489Y-2.3921
X5.5063Y-1.0603
X5.5272Y-4.172
X5.562Y-2.1126
X5.6056Y-3.0709
X5.8406Y-1.3087
X6.0594Y-1.6134
X6.061Y-1.7031
X6.0614Y-1.6606
X6.0693Y-2.0539
X6.0717Y-1.7673
X6.0819Y-3.111
X6.1124Y-1.4885
X6.1299Y-2.0866
X6.1701Y-1.6311
X6.22Y-3.684
X6.2413Y-3.2398
X6.264Y-3.779
X6.5197Y-2.4449
X6.5555Y-2.751
X6.563Y-3.8268
X6.5787Y-2.2756
X6.5831Y-2.2386
X6.6073Y-2.3307
X6.6142Y-2.8346
X6.6181Y-3.1024
X6.622Y-3.2205
X6.6654Y-3.9764
X6.7004Y-4.665
X6.702Y-4.45
X6.731Y-1.887
X6.7559Y-4.0709
X6.776Y-2.1417
X6.7835Y-3.126
X6.8366Y-2.0307
X6.8465Y-2.1417
X6.8474Y-3.3543
X6.8862Y-2.0374
X6.9142Y-1.1996
X6.9593Y-1.8764
X6.9598Y-2.0293
X7.0157Y-3.1092
X7.0236Y-5.0079
X7.0295Y-2.1372
X7.039Y-2.2287
X7.06Y-2.0024
X7.0898Y-2.1657
X7.1299Y-3.887
X7.185Y-3.1654
X7.1878Y-3.2768
X7.1898Y-3.6606
X7.2126Y-3.1102
X7.2402Y-3.0669
X7.2569Y-3.3543
X7.2756Y-3.0354
X7.3819Y-4.4882
X7.3898Y-4.3071
X7.3905Y-1.1356
X7.3976Y-1.1969
X7.4016Y-1.311
X7.4252Y-4.3976
X7.437Y-4.5394
X7.4409Y-4.7913
X7.6102Y-1.1356
X7.7008Y-4.4724
X7.7008Y-4.8661
X7.7381Y-4.8537
X7.8059Y-2.4591
X7.828Y-0.9791
X7.8499Y-1.0118
X7.8785Y-1.0403
X7.9008Y-1.0728
X7.9071Y-2.1874
X7.9646Y-1.9024
X7.9843Y-1.2362
X8.0079Y-2.7756
X8.0083Y-2.5913
X8.1693Y-4.7008
X8.1811Y-4.4331
X8.7409Y-1.0846
X8.7441Y-4.8603
X8.8346Y-4.7717
X8.9232Y-0.9819
X8.9252Y-4.6181
X8.9493Y-4.3323
X8.9654Y-1.008
X9.0017Y-1.0257
X9.461Y-1.0598
X9.6004Y-1.1976
X9.6732Y-4.6142
X9.7087Y-4.3307
X10.8697Y-1.2909
X11.0677Y-1.4866
T2
X1.3268Y-3.6264
X1.3323Y-2.13
X1.3406Y-2.8791
X1.4606Y-3.6264
X1.4661Y-2.13
X1.4744Y-2.8791
X1.9114Y-4.2976
X2.0453Y-4.2976
X2.0945Y-2.7866
X2.1Y-2.0394
X2.1031Y-3.5307
X2.2283Y-2.7866
X2.2339Y-2.0394
X2.237Y-3.5307
X2.5213Y-4.2976
X2.6551Y-4.2976
X2.8201Y-2.5969
X2.8213Y-3.3445
X2.826Y-1.8516
X2.8291Y-4.0976
X2.9539Y-2.5969
X2.9551Y-3.3445
X2.9598Y-1.8516
X2.963Y-4.0976
X3.5709Y-3.2531
X3.5756Y-2.5008
X3.5839Y-1.7539
X3.6646Y-4.0933
X3.7047Y-3.2531
X3.7094Y-2.5008
X3.7177Y-1.7539
X3.7984Y-4.0933
X4.3114Y-1.8484
X4.3209Y-3.3465
X4.328Y-2.5988
X4.3315Y-4.0992
X4.4453Y-1.8484
X4.4547Y-3.3465
X4.4618Y-2.5988
X4.4654Y-4.0992
X5.0594Y-1.9378
X5.0717Y-3.4334
X5.078Y-2.6873
X5.089Y-4.1921
X5.1933Y-1.9378
X5.2055Y-3.4334
X5.2118Y-2.6873
X5.2228Y-4.1921
X5.6417Y-2.678
X5.6417Y-2.8118
X5.7602Y-2.678
X5.7602Y-2.8118
X5.8786Y-2.678
X5.8786Y-2.8118
X5.9968Y-2.678
X5.9968Y-2.8118
X6.1149Y-2.678
X6.1149Y-2.8118
X6.7126Y-2.6811
X6.7126Y-2.815
X6.8307Y-2.6811
X6.8307Y-2.815
X6.9488Y-2.6811
X6.9488Y-2.815
X7.0669Y-2.6811
X7.0669Y-2.815
X7.185Y-2.6811
X7.185Y-2.815
X7.5906Y-3.4252
X7.6181Y-2.6929
X7.622Y-1.9488
X7.6276Y-4.197
X7.7244Y-3.4252
X7.752Y-2.6929
X7.7559Y-1.9488
X7.7614Y-4.197
X8.3622Y-3.3504
X8.3661Y-2.6024
X8.3661Y-4.126
X8.3799Y-1.8457
X8.4961Y-3.3504
X8.5Y-2.6024
X8.5Y-4.126
X8.5138Y-1.8457
X9.0524Y-4.1083
X9.1102Y-1.7598
X9.1157Y-3.256
X9.126Y-2.5079
X9.1862Y-4.1083
X9.2441Y-1.7598
X9.2496Y-3.256
X9.2598Y-2.5079
X9.8638Y-4.1024
X9.8701Y-1.8504
X9.8717Y-3.3505
X9.874Y-2.6024
X9.9976Y-4.1024
X10.0039Y-1.8504
X10.0055Y-3.3505
X10.0079Y-2.6024
X10.185Y-4.3031
X10.3189Y-4.3031
X10.6181Y-2.0394
X10.6181Y-2.7835
X10.622Y-3.5354
X10.752Y-2.0394
X10.752Y-2.7835
X10.7559Y-3.5354
X10.7835Y-4.3031
X10.9173Y-4.3031
X11.3622Y-3.6299
X11.3638Y-2.882
X11.3701Y-2.1339
X11.4961Y-3.6299
X11.4976Y-2.882
X11.5039Y-2.1339
T3
X5.6969Y-0.9538
X5.8819Y-1.0814
X6.1957Y-0.9535
X6.6514Y-0.9626
X6.9429Y-1.0778
X7.1461Y-0.9598
T4
X1.1906Y-3.6265
X1.1961Y-2.1301
X1.2043Y-2.8792
X1.5906Y-3.6265
X1.5961Y-2.1301
X1.6043Y-2.8792
X1.7752Y-4.2977
X1.9583Y-2.7867
X1.9638Y-2.0395
X1.9669Y-3.5308
X2.1752Y-4.2977
X2.3583Y-2.7867
X2.3638Y-2.0395
X2.3669Y-3.5308
X2.385Y-4.2977
X2.6839Y-2.597
X2.685Y-3.3446
X2.6898Y-1.8517
X2.6929Y-4.0977
X2.785Y-4.2977
X3.0839Y-2.597
X3.085Y-3.3446
X3.0898Y-1.8517
X3.0929Y-4.0977
X3.4346Y-3.2532
X3.4394Y-2.5009
X3.4476Y-1.754
X3.5283Y-4.0934
X3.8346Y-3.2532
X3.8394Y-2.5009
X3.8476Y-1.754
X3.9283Y-4.0934
X4.1752Y-1.8485
X4.1846Y-3.3466
X4.1917Y-2.5989
X4.1953Y-4.0993
X4.5752Y-1.8485
X4.5846Y-3.3466
X4.5917Y-2.5989
X4.5953Y-4.0993
X4.9232Y-1.9379
X4.9354Y-3.4335
X4.9417Y-2.6874
X4.9528Y-4.1922
X5.3232Y-1.9379
X5.3354Y-3.4335
X5.3417Y-2.6874
X5.3528Y-4.1922
X5.6418Y-2.548
X5.6418Y-2.948
X5.7603Y-2.548
X5.7603Y-2.948
X5.8787Y-2.548
X5.8787Y-2.948
X5.9969Y-2.548
X5.9969Y-2.948
X6.115Y-2.548
X6.115Y-2.948
X6.7127Y-2.5512
X6.7127Y-2.9512
X6.8308Y-2.5512
X6.8308Y-2.9512
X6.9489Y-2.5512
X6.9489Y-2.9512
X7.067Y-2.5512
X7.067Y-2.9512
X7.1851Y-2.5512
X7.1851Y-2.9512
X7.4606Y-3.4251
X7.4882Y-2.6928
X7.4921Y-1.9487
X7.4976Y-4.1969
X7.8606Y-3.4251
X7.8882Y-2.6928
X7.8921Y-1.9487
X7.8976Y-4.1969
X8.2323Y-3.3503
X8.2362Y-2.6023
X8.2362Y-4.1259
X8.25Y-1.8456
X8.6323Y-3.3503
X8.6362Y-2.6023
X8.6362Y-4.1259
X8.65Y-1.8456
X8.9224Y-4.1082
X8.9803Y-1.7597
X8.9858Y-3.2559
X8.9961Y-2.5078
X9.3224Y-4.1082
X9.3803Y-1.7597
X9.3858Y-3.2559
X9.3961Y-2.5078
X9.7339Y-4.1023
X9.7402Y-1.8503
X9.7417Y-3.3504
X9.7441Y-2.6023
X10.0551Y-4.303
X10.1339Y-4.1023
X10.1402Y-1.8503
X10.1417Y-3.3504
X10.1441Y-2.6023
X10.4551Y-4.303
X10.4882Y-2.0393
X10.4882Y-2.7834
X10.4921Y-3.5353
X10.6535Y-4.303
X10.8882Y-2.0393
X10.8882Y-2.7834
X10.8921Y-3.5353
X11.0535Y-4.303
X11.2323Y-3.6298
X11.2339Y-2.8819
X11.2402Y-2.1338
X11.6323Y-3.6298
X11.6339Y-2.8819
X11.6402Y-2.1338
T5
X5.6374Y-1.0538
X5.6374Y-1.1538
X5.6374Y-1.2538
X5.6374Y-1.3538
X5.6374Y-1.4538
X5.6374Y-1.5538
X5.6374Y-1.6538
X5.6374Y-1.7538
X5.6374Y-1.8538
X5.6374Y-1.9538
X5.6374Y-2.0538
X5.6374Y-2.1538
X5.7374Y-1.9538
X5.7374Y-2.3074
X5.8374Y-1.9538
X5.8374Y-2.3074
X5.9374Y-1.9538
X5.9374Y-2.3074
X6.0374Y-2.3074
X6.1374Y-2.3074
X6.2374Y-1.0538
X6.2374Y-1.1538
X6.2374Y-1.2538
X6.2374Y-1.3538
X6.2374Y-1.4538
X6.2374Y-1.5538
X6.2374Y-1.6538
X6.2374Y-1.7538
X6.2374Y-1.8538
X6.2374Y-1.9538
X6.2374Y-2.0538
X6.2374Y-2.1538
X6.5811Y-1.054
X6.5811Y-1.154
X6.5811Y-1.254
X6.5811Y-1.354
X6.5811Y-1.454
X6.5811Y-1.554
X6.5811Y-1.654
X6.5811Y-1.754
X6.5811Y-1.854
X6.5811Y-1.954
X6.5811Y-2.054
X6.5811Y-2.154
X6.6811Y-1.954
X6.6811Y-2.3083
X6.7811Y-1.954
X6.7811Y-2.3083
X6.8811Y-1.954
X6.8811Y-2.3083
X6.9811Y-2.3083
X7.0811Y-2.3083
X7.1811Y-1.054
X7.1811Y-1.154
X7.1811Y-1.254
X7.1811Y-1.354
X7.1811Y-1.454
X7.1811Y-1.554
X7.1811Y-1.654
X7.1811Y-1.754
X7.1811Y-1.854
X7.1811Y-1.954
X7.1811Y-2.054
X7.1811Y-2.154
T6
X5.22Y-0.9622
X5.476Y-0.9622
X7.372Y-0.9622
X7.628Y-0.9622
T7
X1.7902Y-3.5055
X1.7929Y-2.048
X4.7409Y-1.8488
X4.7575Y-3.3217
X5.6878Y-4.0539
X7.1413Y-4.0531
X8.0866Y-1.8484
X9.4673Y-4.013
X11.0406Y-2.0457
X11.0441Y-3.5083
T8
X1.2478Y-3.8811
X1.2482Y-1.6358
X1.2482Y-2.3843
X1.2486Y-3.1299
X1.9974Y-2.2882
X1.9978Y-3.789
X1.9982Y-3.0374
X1.9986Y-1.5398
X2.7467Y-3.5992
X2.7474Y-2.1024
X2.7474Y-2.85
X2.7482Y-1.3543
X3.1234Y-4.3508
X3.4959Y-3.5075
X3.4967Y-2.7559
X3.497Y-1.2579
X3.497Y-2.0079
X3.8726Y-4.3512
X4.2451Y-2.1016
X4.2455Y-1.3535
X4.2455Y-2.8492
X4.2455Y-3.5992
X4.6219Y-4.4461
X4.9947Y-1.4476
X4.9947Y-3.6925
X4.9951Y-2.1953
X4.9951Y-2.9433
X5.6731Y-4.4572
X5.7864Y-3.4366
X6.7431Y-3.4378
X7.0914Y-4.4408
X7.5341Y-1.4465
X7.5344Y-2.1976
X7.5344Y-2.9457
X7.5344Y-3.6937
X7.9085Y-4.4457
X8.282Y-1.3521
X8.2825Y-2.1031
X8.2825Y-2.8512
X8.2825Y-3.6031
X8.6604Y-4.3551
X9.0344Y-1.2606
X9.0344Y-2.0087
X9.0344Y-2.7606
X9.0344Y-3.5087
X9.4085Y-4.3551
X9.7825Y-1.3512
X9.7825Y-2.1031
X9.7825Y-2.8512
X9.7825Y-3.6031
X10.5344Y-1.5402
X10.5344Y-2.2882
X10.5344Y-3.0362
X10.5344Y-3.7882
X11.2825Y-1.6346
X11.2825Y-2.3827
X11.2825Y-3.1307
X11.2825Y-3.8827
T9
X6.2717Y-4.1024
X6.2717Y-4.2205
X6.5591Y-4.1024
X6.5591Y-4.2205
T10
X1.1984Y-3.9827
X1.1988Y-1.7374
X1.1988Y-2.4858
X1.1992Y-3.2315
X1.5984Y-3.9827
X1.5988Y-1.7374
X1.5988Y-2.4858
X1.5992Y-3.2315
X1.948Y-2.3898
X1.9484Y-3.8906
X1.9488Y-3.139
X1.9492Y-1.6413
X2.348Y-2.3898
X2.3484Y-3.8906
X2.3488Y-3.139
X2.3492Y-1.6413
X2.6972Y-3.7008
X2.698Y-2.2039
X2.698Y-2.9516
X2.6988Y-1.4559
X3.074Y-4.4524
X3.0972Y-3.7008
X3.098Y-2.2039
X3.098Y-2.9516
X3.0988Y-1.4559
X3.4465Y-3.6091
X3.4472Y-2.8575
X3.4476Y-1.3594
X3.4476Y-2.1094
X3.474Y-4.4524
X3.8232Y-4.4528
X3.8465Y-3.6091
X3.8472Y-2.8575
X3.8476Y-1.3594
X3.8476Y-2.1094
X4.1957Y-2.2031
X4.1961Y-1.4551
X4.1961Y-2.9508
X4.1961Y-3.7008
X4.2232Y-4.4528
X4.5724Y-4.5476
X4.5957Y-2.2031
X4.5961Y-1.4551
X4.5961Y-2.9508
X4.5961Y-3.7008
X4.9453Y-1.5492
X4.9453Y-3.7941
X4.9457Y-2.2969
X4.9457Y-3.0449
X4.9724Y-4.5476
X5.3453Y-1.5492
X5.3453Y-3.7941
X5.3457Y-2.2969
X5.3457Y-3.0449
X5.5796Y-4.5205
X5.737Y-3.5382
X5.926Y-4.7205
X6.137Y-3.5382
X6.6937Y-3.5394
X6.9787Y-4.4488
X7.0937Y-3.5394
X7.1787Y-4.7953
X7.4847Y-1.5481
X7.485Y-2.2992
X7.485Y-3.0472
X7.485Y-3.7953
X7.8591Y-4.5472
X7.8847Y-1.5481
X7.885Y-2.2992
X7.885Y-3.0472
X7.885Y-3.7953
X8.2326Y-1.4537
X8.2331Y-2.2047
X8.2331Y-2.9528
X8.2331Y-3.7047
X8.2591Y-4.5472
X8.611Y-4.4567
X8.6326Y-1.4537
X8.6331Y-2.2047
X8.6331Y-2.9528
X8.6331Y-3.7047
X8.985Y-1.3622
X8.985Y-2.1102
X8.985Y-2.8622
X8.985Y-3.6102
X9.011Y-4.4567
X9.3591Y-4.4567
X9.385Y-1.3622
X9.385Y-2.1102
X9.385Y-2.8622
X9.385Y-3.6102
X9.7331Y-1.4528
X9.7331Y-2.2047
X9.7331Y-2.9528
X9.7331Y-3.7047
X9.7591Y-4.4567
X10.1331Y-1.4528
X10.1331Y-2.2047
X10.1331Y-2.9528
X10.1331Y-3.7047
X10.485Y-1.6417
X10.485Y-2.3898
X10.485Y-3.1378
X10.485Y-3.8898
X10.885Y-1.6417
X10.885Y-2.3898
X10.885Y-3.1378
X10.885Y-3.8898
X11.2331Y-1.7362
X11.2331Y-2.4843
X11.2331Y-3.2323
X11.2331Y-3.9843
X11.6331Y-1.7362
X11.6331Y-2.4843
X11.6331Y-3.2323
X11.6331Y-3.9843
T11
X1.1819Y-3.9827
X1.1823Y-1.7374
X1.1823Y-2.4858
X1.1827Y-3.2315
X1.615Y-3.9827
X1.6154Y-1.7374
X1.6154Y-2.4858
X1.6157Y-3.2315
X1.9315Y-2.3898
X1.9319Y-3.8906
X1.9323Y-3.139
X1.9327Y-1.6413
X2.3646Y-2.3898
X2.365Y-3.8906
X2.3654Y-3.139
X2.3657Y-1.6413
X2.6807Y-3.7008
X2.6815Y-2.2039
X2.6815Y-2.9516
X2.6823Y-1.4559
X3.0575Y-4.4524
X3.1138Y-3.7008
X3.1146Y-2.2039
X3.1146Y-2.9516
X3.1154Y-1.4559
X3.4299Y-3.6091
X3.4307Y-2.8575
X3.4311Y-1.3594
X3.4311Y-2.1094
X3.4906Y-4.4524
X3.8067Y-4.4528
X3.863Y-3.6091
X3.8638Y-2.8575
X3.8642Y-1.3594
X3.8642Y-2.1094
X4.1791Y-2.2031
X4.1795Y-1.4551
X4.1795Y-2.9508
X4.1795Y-3.7008
X4.2398Y-4.4528
X4.5559Y-4.5476
X4.6122Y-2.2031
X4.6126Y-1.4551
X4.6126Y-2.9508
X4.6126Y-3.7008
X4.9287Y-1.5492
X4.9287Y-3.7941
X4.9291Y-2.2969
X4.9291Y-3.0449
X4.989Y-4.5476
X5.3618Y-1.5492
X5.3618Y-3.7941
X5.3622Y-2.2969
X5.3622Y-3.0449
X5.5652Y-4.5122
X5.7205Y-3.5382
X5.9403Y-4.7287
X6.1535Y-3.5382
X6.6772Y-3.5394
X6.9705Y-4.4345
X7.1102Y-3.5394
X7.187Y-4.8096
X7.4682Y-1.5481
X7.4685Y-2.2992
X7.4685Y-3.0472
X7.4685Y-3.7953
X7.8425Y-4.5472
X7.9012Y-1.5481
X7.9016Y-2.2992
X7.9016Y-3.0472
X7.9016Y-3.7953
X8.2161Y-1.4537
X8.2165Y-2.2047
X8.2165Y-2.9528
X8.2165Y-3.7047
X8.2756Y-4.5472
X8.5945Y-4.4567
X8.6491Y-1.4537
X8.6496Y-2.2047
X8.6496Y-2.9528
X8.6496Y-3.7047
X8.9685Y-1.3622
X8.9685Y-2.1102
X8.9685Y-2.8622
X8.9685Y-3.6102
X9.0276Y-4.4567
X9.3425Y-4.4567
X9.4016Y-1.3622
X9.4016Y-2.1102
X9.4016Y-2.8622
X9.4016Y-3.6102
X9.7165Y-1.4528
X9.7165Y-2.2047
X9.7165Y-2.9528
X9.7165Y-3.7047
X9.7756Y-4.4567
X10.1496Y-1.4528
X10.1496Y-2.2047
X10.1496Y-2.9528
X10.1496Y-3.7047
X10.4685Y-1.6417
X10.4685Y-2.3898
X10.4685Y-3.1378
X10.4685Y-3.8898
X10.9016Y-1.6417
X10.9016Y-2.3898
X10.9016Y-3.1378
X10.9016Y-3.8898
X11.2165Y-1.7362
X11.2165Y-2.4843
X11.2165Y-3.2323
X11.2165Y-3.9843
X11.6496Y-1.7362
X11.6496Y-2.4843
X11.6496Y-3.2323
X11.6496Y-3.9843
T12
X1.2016Y-4.1283
X1.202Y-1.8831
X1.202Y-2.6315
X1.2024Y-3.3772
X1.2484Y-3.8827
X1.2488Y-1.6374
X1.2488Y-2.3858
X1.2492Y-3.1315
X1.3984Y-4.215
X1.3988Y-1.9697
X1.3988Y-2.7181
X1.3992Y-3.4638
X1.4984Y-3.7827
X1.4988Y-1.5374
X1.4988Y-2.2858
X1.4992Y-3.0315
X1.9512Y-2.5354
X1.9516Y-4.0362
X1.952Y-3.2846
X1.9524Y-1.787
X1.998Y-2.2898
X1.9984Y-3.7906
X1.9988Y-3.039
X1.9992Y-1.5413
X2.148Y-2.622
X2.1484Y-4.1228
X2.1488Y-3.3713
X2.1492Y-1.8736
X2.248Y-2.1898
X2.2484Y-3.6906
X2.2488Y-2.939
X2.2492Y-1.4413
X2.7004Y-3.8465
X2.7012Y-2.3496
X2.7012Y-3.0972
X2.702Y-1.6016
X2.7472Y-3.6008
X2.748Y-2.1039
X2.748Y-2.8516
X2.7488Y-1.3559
X2.8972Y-3.9331
X2.898Y-2.4362
X2.898Y-3.1839
X2.8988Y-1.6882
X2.9972Y-3.5008
X2.998Y-2.0039
X2.998Y-2.7516
X2.9988Y-1.2559
X3.0772Y-4.598
X3.124Y-4.3524
X3.274Y-4.6846
X3.374Y-4.2524
X3.4496Y-3.7547
X3.4504Y-3.0031
X3.4508Y-1.5051
X3.4508Y-2.2551
X3.4965Y-3.5091
X3.4972Y-2.7575
X3.4976Y-1.2594
X3.4976Y-2.0094
X3.6465Y-3.8413
X3.6472Y-3.0898
X3.6476Y-1.5917
X3.6476Y-2.3417
X3.7465Y-3.4091
X3.7472Y-2.6575
X3.7476Y-1.1594
X3.7476Y-1.9094
X3.8264Y-4.5984
X3.8732Y-4.3528
X4.0232Y-4.685
X4.1232Y-4.2528
X4.1988Y-2.3488
X4.1992Y-1.6008
X4.1992Y-3.0965
X4.1992Y-3.8465
X4.2457Y-2.1031
X4.2461Y-1.3551
X4.2461Y-2.8508
X4.2461Y-3.6008
X4.3957Y-2.4354
X4.3961Y-1.6874
X4.3961Y-3.1831
X4.3961Y-3.9331
X4.4957Y-2.0031
X4.4961Y-1.2551
X4.4961Y-2.7508
X4.4961Y-3.5008
X4.5756Y-4.6933
X4.6224Y-4.4476
X4.7724Y-4.7799
X4.8724Y-4.3476
X4.9484Y-1.6949
X4.9484Y-3.9398
X4.9488Y-2.4425
X4.9488Y-3.1906
X4.9953Y-1.4492
X4.9953Y-3.6941
X4.9957Y-2.1969
X4.9957Y-2.9449
X5.1453Y-1.7815
X5.1453Y-4.0264
X5.1457Y-2.5291
X5.1457Y-3.2772
X5.2453Y-1.3492
X5.2453Y-3.5941
X5.2457Y-2.0969
X5.2457Y-2.8449
X5.5094Y-4.6482
X5.6366Y-4.8216
X5.6729Y-4.4589
X5.7402Y-3.6839
X5.787Y-3.4382
X5.937Y-3.7705
X5.9394Y-4.4973
X6.037Y-3.3382
X6.6969Y-3.685
X6.7437Y-3.4394
X6.8542Y-4.5244
X6.8776Y-4.7382
X6.8937Y-3.7717
X6.9937Y-3.3394
X7.0903Y-4.4421
X7.3019Y-4.6086
X7.4878Y-1.6938
X7.4882Y-2.4449
X7.4882Y-3.1929
X7.4882Y-3.9409
X7.5347Y-1.4481
X7.535Y-2.1992
X7.535Y-2.9472
X7.535Y-3.6953
X7.6847Y-1.7804
X7.685Y-2.5315
X7.685Y-3.2795
X7.685Y-4.0276
X7.7847Y-1.3481
X7.785Y-2.0992
X7.785Y-2.8472
X7.785Y-3.5953
X7.8622Y-4.6929
X7.9091Y-4.4472
X8.0591Y-4.7795
X8.1591Y-4.3472
X8.2357Y-1.5994
X8.2362Y-2.3504
X8.2362Y-3.0984
X8.2362Y-3.8504
X8.2826Y-1.3537
X8.2831Y-2.1047
X8.2831Y-2.8528
X8.2831Y-3.6047
X8.4326Y-1.686
X8.4331Y-2.437
X8.4331Y-3.185
X8.4331Y-3.937
X8.5326Y-1.2537
X8.5331Y-2.0047
X8.5331Y-2.7528
X8.5331Y-3.5047
X8.6142Y-4.6024
X8.661Y-4.3567
X8.811Y-4.689
X8.911Y-4.2567
X8.9882Y-1.5079
X8.9882Y-2.2559
X8.9882Y-3.0079
X8.9882Y-3.7559
X9.035Y-1.2622
X9.035Y-2.0102
X9.035Y-2.7622
X9.035Y-3.5102
X9.185Y-1.5945
X9.185Y-2.3425
X9.185Y-3.0945
X9.185Y-3.8425
X9.285Y-1.1622
X9.285Y-1.9102
X9.285Y-2.6622
X9.285Y-3.4102
X9.3622Y-4.6024
X9.4091Y-4.3567
X9.5591Y-4.689
X9.6591Y-4.2567
X9.7362Y-1.5984
X9.7362Y-2.3504
X9.7362Y-3.0984
X9.7362Y-3.8504
X9.7831Y-1.3528
X9.7831Y-2.1047
X9.7831Y-2.8528
X9.7831Y-3.6047
X9.9331Y-1.685
X9.9331Y-2.437
X9.9331Y-3.185
X9.9331Y-3.937
X10.0331Y-1.2528
X10.0331Y-2.0047
X10.0331Y-2.7528
X10.0331Y-3.5047
X10.4882Y-1.7874
X10.4882Y-2.5354
X10.4882Y-3.2835
X10.4882Y-4.0354
X10.535Y-1.5417
X10.535Y-2.2898
X10.535Y-3.0378
X10.535Y-3.7898
X10.685Y-1.874
X10.685Y-2.622
X10.685Y-3.3701
X10.685Y-4.122
X10.785Y-1.4417
X10.785Y-2.1898
X10.785Y-2.9378
X10.785Y-3.6898
X11.2362Y-1.8819
X11.2362Y-2.6299
X11.2362Y-3.378
X11.2362Y-4.1299
X11.2831Y-1.6362
X11.2831Y-2.3843
X11.2831Y-3.1323
X11.2831Y-3.8843
X11.4331Y-1.9685
X11.4331Y-2.7165
X11.4331Y-3.4646
X11.4331Y-4.2165
X11.5331Y-1.5362
X11.5331Y-2.2843
X11.5331Y-3.0323
X11.5331Y-3.7843
T13
X1.3984Y-3.9827
X1.3988Y-1.7374
X1.3988Y-2.4858
X1.3992Y-3.2315
X2.148Y-2.3898
X2.1484Y-3.8906
X2.1488Y-3.139
X2.1492Y-1.6413
X2.8972Y-3.7008
X2.898Y-2.2039
X2.898Y-2.9516
X2.8988Y-1.4559
X3.274Y-4.4524
X3.6465Y-3.6091
X3.6472Y-2.8575
X3.6476Y-1.3594
X3.6476Y-2.1094
X4.0232Y-4.4528
X4.3957Y-2.2031
X4.3961Y-1.4551
X4.3961Y-2.9508
X4.3961Y-3.7008
X4.7724Y-4.5476
X5.1453Y-1.5492
X5.1453Y-3.7941
X5.1457Y-2.2969
X5.1457Y-3.0449
X5.7528Y-4.6205
X5.937Y-3.5382
X6.8937Y-3.5394
X7.0787Y-4.622
X7.6847Y-1.5481
X7.685Y-2.2992
X7.685Y-3.0472
X7.685Y-3.7953
X8.0591Y-4.5472
X8.4326Y-1.4537
X8.4331Y-2.2047
X8.4331Y-2.9528
X8.4331Y-3.7047
X8.811Y-4.4567
X9.185Y-1.3622
X9.185Y-2.1102
X9.185Y-2.8622
X9.185Y-3.6102
X9.5591Y-4.4567
X9.9331Y-1.4528
X9.9331Y-2.2047
X9.9331Y-2.9528
X9.9331Y-3.7047
X10.685Y-1.6417
X10.685Y-2.3898
X10.685Y-3.1378
X10.685Y-3.8898
X11.4331Y-1.7362
X11.4331Y-2.4843
X11.4331Y-3.2323
X11.4331Y-3.9843
T0
M30
